<svg xmlns="http://www.w3.org/2000/svg" width="157" height="157" viewBox="0 0 157 157">
  <g id="LOGO" transform="translate(-257 -28.248)">
    <path id="Subtraction_4" data-name="Subtraction 4" d="M78.5,157a78.133,78.133,0,0,1-43.89-13.406A78.729,78.729,0,0,1,6.169,109.056,78.4,78.4,0,0,1,13.407,34.61,78.731,78.731,0,0,1,47.944,6.169a78.4,78.4,0,0,1,74.446,7.238,78.73,78.73,0,0,1,28.441,34.538,78.4,78.4,0,0,1-7.238,74.446,78.729,78.729,0,0,1-34.538,28.441A78.01,78.01,0,0,1,78.5,157Zm.434-140.519a62.453,62.453,0,1,0,62.453,62.453A62.524,62.524,0,0,0,78.934,16.481Z" transform="translate(257 28.248)" fill="#2a9d8f"/>
    <path id="Subtraction_6" data-name="Subtraction 6" d="M86.464,48.186h0l-5.186-4.921a21.872,21.872,0,0,1-4.106,2.03,22.132,22.132,0,0,1-6.95.97,22.685,22.685,0,0,1-7.711-1.259,18.547,18.547,0,0,1-6.246-3.78A18.978,18.978,0,0,1,51.25,33.74a23.267,23.267,0,0,1-.714-2.254L60.417,32.7a11.027,11.027,0,0,0,2.7,3.428,10.7,10.7,0,0,0,7.092,2.49,11.611,11.611,0,0,0,2.989-.382,14.963,14.963,0,0,0,2.022-.734l-4.371-4.157,4.636-4.84,4.389,4.133a21.4,21.4,0,0,0,1.374-3.468l.414.975,9.17-3.892a24.633,24.633,0,0,1-1.263,6.183,16.175,16.175,0,0,1-3.358,6.171l4.958,4.669-4.7,4.909ZM8.572,45.064H.163v-11.2l8.409,2.571v8.631Zm16.835,0H16.637L8.513,8.823c0,.82.009,1.965.029,3.5.02,1.5.03,2.687.03,3.531V33.979L.163,31.408V1.88H13.294l7.861,33.954,7.8-33.954H41.94V15.357l-8.408,4.1v-3.6c0-.844.01-2.031.03-3.531.02-1.613.029-2.726.029-3.5l-8.184,36.24Zm16.533,0H33.532v-23l8.408-4.1V45.062ZM59.253,29.6h0l-9.326-1.145a35.216,35.216,0,0,1-.347-5.043A29.085,29.085,0,0,1,51.293,13.02,18.946,18.946,0,0,1,62.711,1.8,22.742,22.742,0,0,1,70.35.562a21.983,21.983,0,0,1,7.7,1.311,19.417,19.417,0,0,1,11.28,11.206,26.844,26.844,0,0,1,1.641,9.689q0,.119,0,.236l-9.257,3.93a24.851,24.851,0,0,0,.235-3.523c0-4.82-1-8.6-2.974-11.234s-4.9-3.969-8.686-3.969a10.635,10.635,0,0,0-8.555,3.809c-2.119,2.527-3.194,6.361-3.194,11.4a24.682,24.682,0,0,0,.709,6.187Z" transform="translate(290.233 83.197)" fill="#2a9d8f" stroke="rgba(0,0,0,0)" stroke-miterlimit="10" stroke-width="1"/>
  </g>
</svg>
