<svg xmlns="http://www.w3.org/2000/svg" width="380.007" height="39.687" viewBox="0 0 380.007 39.687">
  <path id="Subtraction_2" data-name="Subtraction 2" d="M258.264,476.688h0l-4.322-4.1a15.142,15.142,0,0,1-9.212,2.5,18.9,18.9,0,0,1-6.427-1.05,15.452,15.452,0,0,1-5.2-3.149,15.8,15.8,0,0,1-4.178-6.238,24.531,24.531,0,0,1-1.393-8.606,24.255,24.255,0,0,1,1.428-8.662,15.793,15.793,0,0,1,9.516-9.349A18.945,18.945,0,0,1,244.836,437a18.336,18.336,0,0,1,6.421,1.092,16.2,16.2,0,0,1,8.24,6.931l-7.038,2.287c-.135-.215-.281-.426-.433-.63a8.521,8.521,0,0,0-7.239-3.307,8.863,8.863,0,0,0-7.129,3.173c-1.766,2.105-2.661,5.3-2.661,9.5,0,4.909,1.282,8.474,3.81,10.6a8.918,8.918,0,0,0,5.91,2.075,9.739,9.739,0,0,0,2.491-.318,12.621,12.621,0,0,0,1.685-.612l-3.642-3.465,3.863-4.033,3.658,3.444a17.048,17.048,0,0,0,1.2-3.076,17.831,17.831,0,0,0,.536-4.613,20.219,20.219,0,0,0-.8-5.981l7.076-2.3a22.658,22.658,0,0,1,1.243,7.746,24.049,24.049,0,0,1-1.172,8.056,13.47,13.47,0,0,1-2.8,5.143l4.131,3.891-3.919,4.091Zm23.95-1.675a18.721,18.721,0,0,1-7.836-1.465,10.517,10.517,0,0,1-4.837-4.395,14.231,14.231,0,0,1-1.5-4.825l7.42-2.411a9.84,9.84,0,0,0,.821,3.7c.9,2.007,2.9,3.025,5.935,3.025,3.018,0,5.007-1.018,5.911-3.025A12.569,12.569,0,0,0,289,460.2V438.1h7.642v22.119c0,3.807-.6,6.813-1.779,8.935a10.453,10.453,0,0,1-4.819,4.395A18.68,18.68,0,0,1,282.214,475.013Zm-200.024,0a18.721,18.721,0,0,1-7.836-1.465,10.518,10.518,0,0,1-4.838-4.395,17.461,17.461,0,0,1-1.761-7.844l7.845,2.1a7.562,7.562,0,0,0,.655,2.205c.9,2.007,2.9,3.025,5.936,3.025,3.018,0,5.007-1.018,5.911-3.025a12.579,12.579,0,0,0,.876-5.415V447.592l7.642-2.781v15.407c0,3.807-.6,6.813-1.779,8.935a10.453,10.453,0,0,1-4.82,4.395A18.672,18.672,0,0,1,82.19,475.013Zm29.174-.927h-7.349v-2.507l7.349-2.675v5.182Zm-141.358,0H-37V438.1h10.942l6.55,28.3,6.5-28.3H-2.185v20.794l-7.007,3.725V449.744c0-.7.008-1.69.024-2.942s.024-2.236.024-2.918l-6.819,30.2h-7.308l-6.771-30.2c0,.658.007,1.612.024,2.918.016,1.252.024,2.242.024,2.942v24.34Zm373,0H315.221v-6.348l8.493-10.743,8.845.309-8.235,10.434h18.681v6.346Zm-32.278,0h-7.471v-25.5l7.471-2.428v27.931Zm-106.652,0h0l-2.375-7.4H188.45l-.808,2.449-6.97-2.131L190.991,438.1H199.5l4.26,12.04-6.6,2.4-1.995-6.214-4.671,14.16h9.217l-1.327-4.135,6.709-2.442,7.137,20.173Zm-18.067,0h-7.865l1.181-3.308,7.063,2.159-.379,1.148Zm-16.783,0h-7.57v-17.9l7.568,2.314v15.585Zm-22.414,0h-7.471v-27.9h7.471v27.9Zm-21.777,0h0c-.229-.8-.394-1.454-.489-1.928a17.768,17.768,0,0,1-.317-3.1l-.049-3.344c-.032-2.285-.432-3.829-1.19-4.59s-2.2-1.147-4.284-1.147h-7.344v4.673l-7.349,2.674V438.1h17.213a15.746,15.746,0,0,1,5.678.928,8.91,8.91,0,0,1,3.369,2.515,11.234,11.234,0,0,1,1.809,3.028,10.126,10.126,0,0,1,.667,3.784,10.293,10.293,0,0,1-.414,2.867l-7.161-2.606a4.211,4.211,0,0,0-2.033-3.629,7.493,7.493,0,0,0-3.478-.634h-8.3v9.668h8.093a8.665,8.665,0,0,0,3.617-.586,3.469,3.469,0,0,0,1.712-1.767l6.334,2.306a7.412,7.412,0,0,1-3.936,2.928,6.752,6.752,0,0,1,3.528,2.844,11.892,11.892,0,0,1,1.038,5.628v2.417a18.326,18.326,0,0,0,.2,3.345,3.018,3.018,0,0,0,1.389,2.05v.9Zm-72.459,0h-7.57V461.92l7.568-5.1v17.268Zm-24.427,0h0l-.419-1.3,6.549-4.417,2.023,5.719Zm-18.067,0H2.217l6.666-18.672,6.181,3.569-.5,1.5h9.216l-4.546-14.16L16.343,455.1l-6.094-3.518L15.063,438.1h8.508l9.33,26.37-6.444,4.347-.683-2.128H12.522l-2.439,7.4Zm-12.266,0h-7.01v-6.937l7.007-3.726v10.661Zm269.944-13.873h0V438.1H275.4v19.63l-7.641,2.483Zm-192.383-1h0l-7.64-2.047V438.1h7.641v21.111ZM45.007,457.1V444.47H34.191V438.1H63.342v6.372H52.575v7.52l-7.567,5.1Zm124.218-2.78h0L161.657,452V444.47H150.842V438.1h29.15v6.372H169.225v9.844Zm166.407-.907h0l-8.839-.309,6.822-8.63H315.686V438.1h27.27v6.031l-7.323,9.279Zm-32.374-9.034h0V438.1h7.471v3.849l-7.47,2.427Zm-214.282-1.04h0V438.1h7.642v2.455l-7.641,2.781Zm57.837-1.149h-7.471V438.1h7.471v4.087Z" transform="translate(37 -437)" fill="#fefcfb"/>
</svg>
